<svg xmlns="http://www.w3.org/2000/svg" xmlns:svg="http://www.w3.org/2000/svg" id="svg8" width="2000" height="2000" version="1.1" viewBox="0 0 2000 2000"><metadata id="metadata5"/><g id="layer1" transform="translate(0,908.75002)"><rect style="opacity:1;fill:#121212;fill-opacity:1;stroke:none;stroke-width:13.88888836;stroke-linecap:round;stroke-linejoin:miter;stroke-miterlimit:4;stroke-dasharray:none;stroke-dashoffset:0;stroke-opacity:1;paint-order:normal" id="rect1364" width="2000" height="2000" x="0" y="-908.75"/><g id="g1238" transform="translate(-14.00002)" style="fill:#804dde;fill-opacity:1"><path style="opacity:1;fill:#804dde;fill-opacity:1;stroke:none;stroke-width:3.5;stroke-linecap:round;stroke-linejoin:miter;stroke-miterlimit:4;stroke-dasharray:none;stroke-dashoffset:0;stroke-opacity:1;paint-order:normal" id="rect848-9" d="M 750.03906 600 L 750.03906 800 L 950.03906 1000 L 750.03906 1200 L 750.03906 1400 L 950.03906 1400 L 1150.0391 1200 L 1350.0391 1400 L 1550.0391 1400 L 1550.0391 1200 L 1350.0391 1000 L 1550.0391 800 L 1550.0391 600 L 1350.0391 600 L 1150.0391 800 L 950.03906 600 L 750.03906 600 z" transform="translate(14.00002,-908.75002)"/><path id="rect848-9-7" d="m 463.99794,-308.75 h 212.09532 l 0.0368,49.99998 v 150 H 513.99793 l -49.99999,-50.00002 z M 676.13005,491.24998 H 463.99794 L 463.96114,9.9038144 V -39.263056 h 162.16891 l 50.00001,50.00002 z" style="opacity:1;fill:#804dde;fill-opacity:1;stroke:none;stroke-width:.87499994;stroke-linecap:round;stroke-linejoin:miter;stroke-miterlimit:4;stroke-dasharray:none;stroke-dashoffset:0;stroke-opacity:1;paint-order:normal"/></g></g></svg>